<?xml version="1.0" encoding="utf-8"?>
<!-- Generator: Adobe Illustrator 26.0.2, SVG Export Plug-In . SVG Version: 6.00 Build 0)  -->
<svg version="1.0" id="Calque_1" xmlns="http://www.w3.org/2000/svg" xmlns:xlink="http://www.w3.org/1999/xlink" x="0px" y="0px"
	 viewBox="0 0 4000 4000" style="enable-background:new 0 0 4000 4000;" xml:space="preserve">
<path style="fill:#EFF2FA;" d="M3862.07,3718.1H137.93C61.75,3718.1,0,3656.35,0,3580.17V407.75c0-76.18,61.75-137.93,137.93-137.93
	h3724.14c76.18,0,137.93,61.75,137.93,137.93v3172.41C4000,3656.34,3938.24,3718.1,3862.07,3718.1z"/>
<path style="fill:#FF6464;" d="M4000,959.48H0V407.75c0-76.18,61.75-137.93,137.93-137.93h3724.14
	c76.18,0,137.93,61.75,137.93,137.93v551.73H4000z"/>
<rect y="959.48" style="fill:#E4EAF6;" width="4000" height="137.93"/>
<circle style="fill:#D2555A;" cx="586.2" cy="580.16" r="206.89"/>
<path style="fill:#C7CFE2;" d="M586.2,683.62L586.2,683.62c-57.14,0-103.44-46.31-103.44-103.44V235.34
	c0-57.14,46.31-103.44,103.44-103.44l0,0c57.14,0,103.44,46.31,103.44,103.44v344.83C689.65,637.3,643.34,683.62,586.2,683.62z"/>
<path style="fill:#AFB9D2;" d="M586.2,476.72c-57.14,0-103.44-46.31-103.44-103.44v206.89c0,57.14,46.31,103.44,103.44,103.44
	c57.14,0,103.44-46.31,103.44-103.44V373.27C689.65,430.41,643.34,476.72,586.2,476.72z"/>
<circle style="fill:#D2555A;" cx="3413.8" cy="580.16" r="206.89"/>
<path style="fill:#C7CFE2;" d="M3413.8,683.62L3413.8,683.62c-57.14,0-103.44-46.31-103.44-103.44V235.34
	c0-57.14,46.31-103.44,103.44-103.44l0,0c57.14,0,103.44,46.31,103.44,103.44v344.83C3517.24,637.3,3470.93,683.62,3413.8,683.62z"
	/>
<path style="fill:#AFB9D2;" d="M3413.8,476.72c-57.14,0-103.44-46.31-103.44-103.44v206.89c0,57.14,46.31,103.44,103.44,103.44
	c57.13,0,103.44-46.31,103.44-103.44V373.27C3517.24,430.41,3470.93,476.72,3413.8,476.72z"/>
<g>
	<path style="fill:#FF6464;" d="M1836.66,2357.72c-7.43-1.72-8.16-11.2-1.05-13.95c163.14-63.18,260.7-203.11,260.7-383
		c0-254.35-221.26-438.94-526.05-438.94c-263.82,0-465.09,137.97-525.29,360.08c-7.73,28.35-1.95,57.91,15.77,81.07
		c17.34,22.69,43.68,35.7,72.21,35.7c41.28,0,77.48-28.25,87.98-68.72c37.9-147.07,169.1-238.42,342.42-238.42
		c208.2,0,342.67,113.34,342.67,288.72c0,177.43-143.72,301.35-349.47,301.35h-126.12c-45.57,0-82.58,37.02-82.58,82.54
		s37.02,82.58,82.58,82.58h132.91c258.34,0,412.56,120.79,412.56,323.11c0,185.92-167.23,320.83-397.67,320.83
		c-198.77,0-352.6-96.84-391.94-246.75c-11-41.61-47.64-70.67-89.11-70.67c-28.52,0-54.86,12.94-72.4,35.5
		c-17.84,23.06-23.89,52.63-16.53,81.09c58.19,225.07,282.34,370.49,571.1,370.49c335.2,0,587.94-212.84,587.94-495.1
		C2167.32,2556.86,2040.52,2404.84,1836.66,2357.72z"/>
	<path style="fill:#FF6464;" d="M2822.63,1545.93c-46.44,0.17-91.11,14.02-129.27,40.09c-48.26,32.93-118.51,81.76-186.52,129.02
		c-67.87,47.13-133.41,92.69-172.43,119.2c-23.64,16.09-37.77,42.69-37.77,71.2c0,32.05,17.59,61.25,45.86,76.23
		c28.47,15.15,61.59,13.35,88.35-4.87c68.86-46.8,252.8-176.19,301.77-210.68c5.21-3.67,12.11,0.25,12.11,6.61V3142.3
		c0,50.56,41.16,91.69,91.69,91.69c50.53,0,91.69-41.13,91.69-91.69V1650.51C2928.14,1592.53,2880.63,1545.72,2822.63,1545.93z"/>
</g>
</svg>
