<?xml version="1.0" encoding="utf-8"?>
<!-- Generator: Adobe Illustrator 26.0.1, SVG Export Plug-In . SVG Version: 6.00 Build 0)  -->
<svg version="1.0" id="Calque_1" xmlns="http://www.w3.org/2000/svg" xmlns:xlink="http://www.w3.org/1999/xlink" x="0px" y="0px"
	 viewBox="0 0 4000 4000" style="enable-background:new 0 0 4000 4000;" xml:space="preserve">
<path style="fill:#EFF2FA;" d="M3644.77,3583.85H355.23c-67.29,0-121.83-54.54-121.83-121.83V659.82
	c0-67.29,54.54-121.83,121.83-121.83h3289.53c67.29,0,121.83,54.54,121.83,121.83v2802.19
	C3766.6,3529.3,3712.05,3583.85,3644.77,3583.85z"/>
<path style="fill:#FF6464;" d="M3766.6,1147.16H233.4V659.82c0-67.29,54.54-121.83,121.83-121.83h3289.53
	c67.29,0,121.83,54.54,121.83,121.83V1147.16z"/>
<rect x="233.4" y="1147.16" style="fill:#E4EAF6;" width="3533.2" height="121.83"/>
<circle style="fill:#D2555A;" cx="751.19" cy="812.11" r="182.75"/>
<path style="fill:#C7CFE2;" d="M751.19,903.49L751.19,903.49c-50.47,0-91.37-40.91-91.37-91.37V507.53
	c0-50.47,40.91-91.37,91.37-91.37l0,0c50.47,0,91.37,40.91,91.37,91.37v304.59C842.57,862.58,801.66,903.49,751.19,903.49z"/>
<path style="fill:#AFB9D2;" d="M751.19,720.74c-50.47,0-91.37-40.91-91.37-91.37v182.75c0,50.47,40.91,91.37,91.37,91.37
	c50.47,0,91.37-40.91,91.37-91.37V629.36C842.57,679.83,801.66,720.74,751.19,720.74z"/>
<circle style="fill:#D2555A;" cx="3248.81" cy="812.11" r="182.75"/>
<path style="fill:#C7CFE2;" d="M3248.81,903.49L3248.81,903.49c-50.47,0-91.37-40.91-91.37-91.37V507.53
	c0-50.47,40.91-91.37,91.37-91.37l0,0c50.47,0,91.37,40.91,91.37,91.37v304.59C3340.18,862.58,3299.27,903.49,3248.81,903.49z"/>
<path style="fill:#AFB9D2;" d="M3248.81,720.74c-50.47,0-91.37-40.91-91.37-91.37v182.75c0,50.47,40.91,91.37,91.37,91.37
	c50.46,0,91.37-40.91,91.37-91.37V629.36C3340.18,679.83,3299.27,720.74,3248.81,720.74z"/>
<g>
	<path style="fill:#FF6464;" d="M1855.72,2382.23c-6.56-1.52-7.21-9.89-0.93-12.32c144.1-55.81,230.28-179.41,230.28-338.3
		c0-224.67-195.44-387.72-464.66-387.72c-233.03,0-410.81,121.87-463.99,318.06c-6.83,25.04-1.72,51.15,13.93,71.61
		c15.32,20.04,38.58,31.53,63.78,31.53c36.46,0,68.44-24.95,77.71-60.7c33.48-129.91,149.37-210.6,302.46-210.6
		c183.9,0,302.68,100.11,302.68,255.03c0,156.72-126.95,266.18-308.69,266.18h-111.4c-40.25,0-72.94,32.7-72.94,72.91
		c0,40.21,32.7,72.94,72.94,72.94h117.4c228.19,0,364.41,106.69,364.41,285.4c0,164.22-147.71,283.39-351.26,283.39
		c-175.57,0-311.45-85.54-346.2-217.95c-9.72-36.75-42.08-62.42-78.71-62.42c-25.19,0-48.46,11.43-63.95,31.36
		c-15.76,20.37-21.1,46.49-14.6,71.63c51.4,198.8,249.39,327.25,504.45,327.25c296.08,0,519.33-188,519.33-437.32
		C2147.79,2558.13,2035.79,2423.85,1855.72,2382.23z"/>
	<path style="fill:#FF6464;" d="M2726.63,1665.17c-41.02,0.15-80.48,12.38-114.18,35.41c-42.63,29.09-104.68,72.22-164.75,113.96
		c-59.95,41.63-117.84,81.87-152.31,105.29c-20.88,14.21-33.36,37.71-33.36,62.89c0,28.31,15.54,54.1,40.51,67.33
		c25.15,13.38,54.4,11.79,78.04-4.3c60.82-41.34,223.3-155.63,266.55-186.09c4.6-3.24,10.7,0.22,10.7,5.84v1209.75
		c0,44.66,36.36,80.99,80.99,80.99c44.63,0,80.99-36.33,80.99-80.99v-1317.7C2819.83,1706.33,2777.86,1664.99,2726.63,1665.17z"/>
</g>
</svg>
